<svg version="1.1" id="Layer_1" xmlns="http://www.w3.org/2000/svg" xmlns:xlink="http://www.w3.org/1999/xlink" x="0px" y="0px"
	 width="100%" viewBox="0 0 1920 521" enable-background="new 0 0 1920 521" xml:space="preserve">
<path fill="#FFFFFF" opacity="1.000000" stroke="none" 
	d="
M1409.000000,522.000000 
	C939.333313,522.000000 470.166656,522.000000 1.000000,522.000000 
	C1.000000,348.333344 1.000000,174.666672 1.000000,1.000000 
	C641.000000,1.000000 1281.000000,1.000000 1921.000000,1.000000 
	C1921.000000,174.666672 1921.000000,348.333344 1921.000000,522.000000 
	C1750.500000,522.000000 1580.000000,522.000000 1409.000000,522.000000 
M131.617355,227.019226 
	C119.445786,237.794449 107.274216,248.569656 95.058006,259.384399 
	C122.875557,291.221375 152.873062,319.960602 188.112289,342.743164 
	C242.204956,377.714691 300.751556,395.611542 365.743500,388.016022 
	C398.105865,384.233826 428.203094,373.536133 456.600372,357.883209 
	C492.705170,337.981842 523.875061,311.919861 551.072571,281.056793 
	C557.628052,273.617798 563.656433,265.714203 570.269348,257.604645 
	C555.407837,246.967819 541.292236,236.864868 528.326416,227.584839 
	C511.068024,244.694427 495.318695,261.970673 477.846100,277.280121 
	C442.619537,308.145538 402.576721,329.553772 355.206482,335.382263 
	C328.245972,338.699554 302.084106,335.740540 276.466187,327.209351 
	C237.828506,314.342377 204.998032,291.872955 175.235733,264.709290 
	C162.214584,252.825119 150.157837,239.882431 137.712570,227.371262 
	C135.963638,225.613068 134.470490,223.745651 131.617355,227.019226 
M390.696625,170.837234 
	C375.632690,141.570343 344.879944,127.431198 315.125549,136.092072 
	C284.868774,144.899200 265.815491,173.147720 268.874634,204.663910 
	C273.272186,249.968689 324.872925,276.216553 364.274719,253.386322 
	C391.027008,237.885513 405.154785,203.845840 390.696625,170.837234 
M1329.449219,136.887833 
	C1323.339722,136.887833 1317.230225,136.887833 1310.694824,136.887833 
	C1310.694824,166.882324 1310.694824,196.211227 1310.694824,226.921021 
	C1309.023926,224.916443 1308.212524,223.882523 1307.339111,222.904068 
	C1283.383057,196.066788 1259.262573,169.373550 1235.583252,142.294373 
	C1230.397217,136.363678 1224.794800,136.387253 1218.411743,137.352539 
	C1218.411743,184.810028 1218.411743,231.870804 1218.411743,278.862305 
	C1227.730713,278.862305 1236.632812,278.862305 1246.069824,278.862305 
	C1246.069824,249.188126 1246.069824,219.908325 1246.069824,189.808868 
	C1247.524658,191.356049 1248.327637,192.173859 1249.090942,193.027008 
	C1273.302368,220.085770 1297.619019,247.051849 1321.627930,274.289215 
	C1326.530151,279.850708 1332.017334,279.648041 1338.236084,278.811157 
	C1338.236084,231.370422 1338.236084,184.305084 1338.236084,136.887726 
	C1335.395630,136.887726 1332.912842,136.887726 1329.449219,136.887833 
M1719.017944,270.498688 
	C1706.483521,253.198334 1696.678101,233.945541 1681.885742,218.185974 
	C1683.988892,217.324539 1686.321777,216.442093 1688.595459,215.426666 
	C1716.773560,202.841797 1718.794434,171.614685 1706.828857,155.192566 
	C1698.812378,144.190277 1686.886841,139.139709 1674.049927,138.317734 
	C1653.302612,136.989227 1632.448242,137.333511 1611.638306,137.005310 
	C1611.216675,136.998657 1610.788574,137.406448 1610.484253,137.559921 
	C1610.484253,184.778610 1610.484253,231.845566 1610.484253,278.909607 
	C1619.794800,278.909607 1628.707886,278.909607 1638.144531,278.909607 
	C1638.144531,260.482819 1638.144531,242.401428 1638.144531,223.806976 
	C1641.460693,223.806976 1644.281860,224.072327 1647.036133,223.755859 
	C1654.464478,222.902344 1659.111328,226.178711 1662.863281,232.471497 
	C1669.596680,243.765076 1677.678955,254.297394 1683.869629,265.858887 
	C1689.508789,276.390839 1697.006714,280.959167 1708.807983,279.373444 
	C1713.732666,278.711731 1718.820435,279.263519 1724.789551,279.263519 
	C1722.498291,275.786682 1720.956055,273.446686 1719.017944,270.498688 
M1152.281006,141.196579 
	C1132.698486,131.748428 1112.597778,130.819748 1092.851074,139.676254 
	C1050.752686,158.557632 1036.016846,208.894516 1060.621216,247.932800 
	C1079.122559,277.287537 1117.847534,289.591461 1148.735840,275.348511 
	C1176.334717,262.622375 1191.512939,240.485901 1192.639648,210.273605 
	C1193.782471,179.623749 1179.895508,156.525299 1152.281006,141.196579 
M1454.866211,217.146515 
	C1454.866211,210.706238 1454.866211,204.265945 1454.866211,197.126770 
	C1436.125244,197.126770 1417.593384,197.126770 1399.012695,197.126770 
	C1399.012695,184.493195 1399.012695,172.566132 1399.012695,160.037659 
	C1420.004761,160.037659 1440.724976,160.037659 1461.618164,160.037659 
	C1461.618164,152.047577 1461.618164,144.665115 1461.618164,137.321335 
	C1431.574219,137.321335 1401.877808,137.321335 1372.346802,137.321335 
	C1372.346802,184.821136 1372.346802,231.884613 1372.346802,278.924194 
	C1402.313232,278.924194 1431.887451,278.924194 1461.664551,278.924194 
	C1461.664551,271.182617 1461.664551,263.782440 1461.664551,255.803574 
	C1440.644775,255.803574 1419.916626,255.803574 1399.027344,255.803574 
	C1399.027344,242.980240 1399.027344,230.739151 1399.027344,217.747833 
	C1417.590088,217.747833 1435.863403,217.747833 1454.866211,217.146515 
M1518.500000,279.261414 
	C1539.432129,279.261414 1560.364136,279.261414 1581.543457,279.261414 
	C1581.543457,271.218414 1581.543457,263.816742 1581.543457,255.725159 
	C1560.411133,255.725159 1539.553955,255.725159 1518.671631,255.725159 
	C1518.671631,242.797791 1518.671631,230.565155 1518.671631,217.714355 
	C1537.620483,217.714355 1556.175781,217.714355 1574.711914,217.714355 
	C1574.711914,210.654266 1574.711914,204.221298 1574.711914,197.187073 
	C1555.886963,197.187073 1537.333130,197.187073 1518.683960,197.187073 
	C1518.683960,184.525635 1518.683960,172.476608 1518.683960,159.923676 
	C1539.836426,159.923676 1560.582397,159.923676 1581.479492,159.923676 
	C1581.479492,152.024628 1581.479492,144.637787 1581.479492,137.310089 
	C1551.418335,137.310089 1521.709961,137.310089 1492.173828,137.310089 
	C1492.173828,184.789093 1492.173828,231.845200 1492.173828,279.261719 
	C1500.882568,279.261719 1509.191284,279.261719 1518.500000,279.261414 
M689.102051,155.291458 
	C687.343750,151.157349 686.010376,146.760452 683.674805,142.983322 
	C682.166016,140.543381 679.315247,137.552399 676.847351,137.339279 
	C668.661987,136.632416 660.377625,137.072281 651.672424,137.072281 
	C652.225708,138.682999 652.513000,139.777328 652.965210,140.798599 
	C672.905273,185.832230 692.900146,230.841705 712.740051,275.919403 
	C714.402832,279.697266 717.230347,281.385956 720.745178,281.722931 
	C728.018799,282.420288 730.893311,280.950531 734.590332,272.567505 
	C750.702698,236.032730 767.059204,199.605682 783.306091,163.130157 
	C787.073914,154.671143 790.759277,146.175385 794.838562,136.885971 
	C787.111206,136.885971 780.329346,137.120163 773.571777,136.816193 
	C767.534241,136.544601 763.990967,139.142654 761.685974,144.596664 
	C752.878967,165.435715 743.828125,186.171570 734.964294,206.986832 
	C731.035950,216.211899 727.336426,225.534393 723.400330,235.136383 
	C711.952332,208.487213 700.676453,182.238632 689.102051,155.291458 
M1732.180420,258.511719 
	C1732.454590,259.943665 1732.228882,261.858673 1733.076782,262.736420 
	C1751.038086,281.328613 1782.941528,288.736115 1806.143433,273.360474 
	C1826.049438,260.168945 1832.373169,238.205536 1821.339722,218.262482 
	C1815.191650,207.149567 1804.813599,201.231125 1793.629395,196.469421 
	C1786.304199,193.350647 1778.760742,190.710770 1771.578857,187.300766 
	C1767.117065,185.182266 1764.873901,181.056824 1764.720093,175.918793 
	C1764.378540,164.506699 1774.292358,155.190430 1785.516235,157.577728 
	C1792.695190,159.104691 1799.630981,162.205444 1806.357422,165.293884 
	C1811.725464,167.758545 1813.633179,167.713760 1816.451172,162.627045 
	C1817.820679,160.154587 1818.866943,157.489761 1820.368408,155.106491 
	C1822.868164,151.138290 1821.882324,148.453506 1818.026978,146.067566 
	C1802.901489,136.706665 1786.800659,133.224030 1769.318604,137.590988 
	C1751.752808,141.978897 1740.226929,155.990402 1738.515259,174.985550 
	C1736.998169,191.821121 1745.173462,205.360001 1761.929688,212.913208 
	C1771.011475,217.007050 1780.504639,220.193695 1789.555786,224.348495 
	C1795.541382,227.096146 1799.119995,232.235046 1798.912720,239.076370 
	C1798.699463,246.118698 1795.083130,251.363129 1788.932007,254.736237 
	C1782.590210,258.213806 1775.742432,258.812531 1769.176514,256.118896 
	C1763.084717,253.619690 1757.370117,250.150986 1751.624390,246.872543 
	C1746.178955,243.765305 1743.511963,244.032394 1739.600952,248.863617 
	C1737.193604,251.837585 1734.939209,254.935516 1732.180420,258.511719 
M950.433044,266.937653 
	C965.707764,251.303528 968.271301,233.532089 957.504761,216.148148 
	C951.458801,206.386078 942.033447,200.720398 931.801453,196.333694 
	C924.627075,193.257843 917.140564,190.886200 910.063354,187.615860 
	C905.395386,185.458771 902.083252,181.704529 901.793213,176.024948 
	C901.217957,164.760544 908.595398,156.888458 919.982300,156.920868 
	C928.382874,156.944763 935.951843,159.754364 942.960754,164.249344 
	C948.592163,167.860855 950.839172,167.288803 953.995056,161.395187 
	C955.250610,159.050415 956.231018,156.548553 957.598145,154.275467 
	C959.877563,150.485489 958.940002,147.904892 955.279297,145.623260 
	C941.316467,136.920547 926.351501,132.955170 909.993530,136.166336 
	C891.015503,139.891830 877.903870,153.529099 876.087708,171.295013 
	C874.221069,189.553589 880.106750,205.165802 900.718445,213.195251 
	C909.235535,216.513123 917.841919,219.666702 926.117920,223.517670 
	C932.580261,226.524719 936.641602,231.829758 935.943054,239.433624 
	C935.238953,247.096756 930.861389,252.179947 923.847778,255.195053 
	C915.252869,258.889954 907.166504,256.844025 899.381409,252.931229 
	C895.088196,250.773483 891.154358,247.908890 887.009644,245.445038 
	C883.770874,243.519699 880.566406,243.469589 878.049133,246.587479 
	C874.618164,250.837097 871.397827,255.256836 868.164307,259.502319 
	C883.626770,279.784637 924.190369,291.969513 950.433044,266.937653 
M844.140076,146.531006 
	C844.140076,143.431015 844.140076,140.331009 844.140076,137.211853 
	C834.209961,137.211853 824.981628,137.211853 815.670776,137.211853 
	C815.670776,184.698227 815.670776,231.856125 815.670776,279.165405 
	C825.303162,279.165405 834.531372,279.165405 844.140198,279.165405 
	C844.140198,235.054398 844.140198,191.287674 844.140076,146.531006 
M992.225769,246.499985 
	C992.225769,257.282166 992.225769,268.064362 992.225769,279.100525 
	C1002.141541,279.100525 1011.497253,279.100525 1020.958923,279.100525 
	C1020.958923,231.615250 1020.958923,184.538528 1020.958923,137.262497 
	C1011.341125,137.262497 1001.982361,137.262497 992.743835,137.262497 
	C992.511475,137.941376 992.315552,138.246948 992.315247,138.552734 
	C992.276001,174.201797 992.251404,209.850891 992.225769,246.499985 
M1459.559692,383.297119 
	C1464.605957,367.098846 1469.652222,350.900543 1474.764771,334.489655 
	C1466.206787,333.874908 1466.190674,333.869781 1463.974365,340.811401 
	C1463.217163,343.183441 1462.583130,345.594513 1461.857666,347.977020 
	C1459.432495,355.941864 1456.991577,363.901886 1454.556641,371.863800 
	C1449.867920,361.351532 1446.439087,350.844727 1442.824951,340.402100 
	C1441.853027,337.593506 1441.568970,333.905060 1437.017334,334.153595 
	C1432.919189,334.377441 1432.662109,337.671844 1431.725464,340.410828 
	C1428.028687,351.221863 1424.382935,362.050323 1420.410400,373.781433 
	C1416.868530,362.102600 1413.594849,351.317535 1410.327393,340.530579 
	C1408.240845,333.642578 1407.927368,333.460083 1399.347656,334.782227 
	C1404.888550,352.554871 1410.398804,370.228943 1415.860596,387.747894 
	C1423.424805,388.521271 1423.389893,388.509705 1425.570923,381.919617 
	C1428.181396,374.031128 1430.846191,366.160583 1433.514526,358.291473 
	C1434.536011,355.279388 1435.632324,352.292694 1437.138672,348.040955 
	C1441.938477,362.338715 1446.248657,375.177704 1450.585449,388.096283 
	C1454.252930,387.705200 1458.666382,390.023224 1459.559692,383.297119 
M891.109314,357.500031 
	C891.109314,367.602020 891.109314,377.704041 891.109314,387.772125 
	C894.033569,387.772125 896.278198,387.772125 899.098328,387.772125 
	C899.098328,375.128601 899.098328,362.813080 899.098328,349.272858 
	C908.622498,361.654602 917.414124,372.904785 925.974915,384.328003 
	C928.387695,387.547638 931.031128,388.906708 935.007507,387.700623 
	C935.007507,369.953674 935.007507,352.229126 935.007507,334.497070 
	C932.432373,334.497070 930.195679,334.497070 927.288452,334.497070 
	C927.288452,346.962585 927.288452,359.118256 927.288452,372.525726 
	C925.459045,370.338043 924.500549,369.266693 923.624084,368.132019 
	C915.692261,357.863251 907.707642,347.634033 899.893311,337.276367 
	C897.502380,334.107300 894.824036,333.469482 891.109314,334.888489 
	C891.109314,342.205933 891.109314,349.352997 891.109314,357.500031 
M857.878906,350.502808 
	C857.878906,345.227234 857.878906,339.951660 857.878906,334.613586 
	C854.888550,334.613586 852.536133,334.613586 849.738037,334.613586 
	C849.738037,347.252655 849.738037,359.455627 849.738037,372.641754 
	C848.049133,370.564484 846.996094,369.326141 846.004333,368.040436 
	C838.276733,358.021729 830.467529,348.063660 822.895874,337.928223 
	C820.495361,334.714905 817.904541,333.320862 813.847534,334.711639 
	C813.847534,352.398407 813.847534,370.009583 813.847534,387.864319 
	C816.299683,387.864319 818.566467,387.864319 821.558350,387.864319 
	C821.558350,375.425079 821.558350,363.138062 821.558350,350.851044 
	C831.295776,361.937134 840.156433,373.114014 848.648071,384.564453 
	C851.178772,387.976990 853.844604,388.632324 857.878906,387.598267 
	C857.878906,375.441101 857.878906,363.471527 857.878906,350.502808 
M1222.122559,388.051178 
	C1222.524902,386.582306 1223.259888,385.117065 1223.275757,383.644012 
	C1223.380493,373.994415 1223.314575,364.343109 1223.347900,354.692505 
	C1223.352417,353.389160 1223.600464,352.086700 1223.848511,349.699432 
	C1233.361694,362.022919 1242.208496,373.227997 1250.728394,384.676331 
	C1253.261719,388.080505 1255.979614,388.606384 1259.584717,387.683075 
	C1259.584717,369.779236 1259.584717,352.225647 1259.584717,334.447144 
	C1257.032837,334.447144 1254.795044,334.447144 1251.920898,334.447144 
	C1251.920898,347.011597 1251.920898,359.321960 1251.920898,372.752228 
	C1250.266968,370.787964 1249.401733,369.833771 1248.617188,368.817383 
	C1240.590210,358.418365 1232.481323,348.080414 1224.616821,337.559692 
	C1222.257935,334.404083 1219.635620,333.534088 1215.966187,334.627045 
	C1215.966187,352.410187 1215.966187,370.106812 1215.966187,388.099091 
	C1217.952026,388.099091 1219.597656,388.099091 1222.122559,388.051178 
M756.553284,333.683929 
	C740.366638,334.709137 730.758789,343.954559 730.135376,359.757507 
	C729.742188,369.723663 732.595093,378.666656 741.551575,384.325348 
	C750.731628,390.125336 760.523438,390.369598 770.034485,385.393250 
	C780.370239,379.985413 785.493225,366.991730 782.755493,354.858490 
	C779.780396,341.673248 771.553101,334.810974 756.553284,333.683929 
M1549.520874,348.026825 
	C1544.320068,337.549225 1535.570068,333.262054 1524.233521,333.770966 
	C1512.947510,334.277618 1505.140625,339.864899 1501.013062,350.408447 
	C1496.554810,361.796997 1500.078369,376.307587 1508.903442,383.259827 
	C1517.616943,390.124176 1531.718140,390.530029 1541.276123,384.191467 
	C1551.613037,377.336426 1555.310547,362.033844 1549.520874,348.026825 
M1612.513794,362.102509 
	C1617.855347,358.152588 1620.004639,352.796387 1618.828735,346.358978 
	C1617.776733,340.599548 1614.084351,336.370087 1608.417603,335.526276 
	C1600.326172,334.321472 1592.064453,334.260712 1583.800903,333.706299 
	C1583.800903,352.570465 1583.800903,370.253632 1583.800903,387.732666 
	C1586.789551,387.732666 1589.350098,387.732666 1592.314697,387.732666 
	C1592.314697,380.413544 1592.314697,373.484833 1592.314697,366.672760 
	C1596.662842,365.294495 1599.324463,366.783112 1601.529175,370.110870 
	C1604.374268,374.405273 1607.546997,378.482391 1610.567261,382.661194 
	C1614.981812,388.768707 1615.998169,389.151489 1623.849487,387.350952 
	C1618.333008,379.760223 1612.909668,372.297577 1607.399170,364.714874 
	C1609.228027,363.811676 1610.562866,363.152435 1612.513794,362.102509 
M1744.511475,336.909088 
	C1733.998901,332.216583 1723.028687,334.907471 1712.176025,334.152191 
	C1712.176025,352.476685 1712.176025,370.044250 1712.176025,387.964661 
	C1719.699585,387.964661 1726.982056,388.215149 1734.241089,387.908813 
	C1746.627075,387.386078 1755.528076,379.924469 1758.115967,368.359802 
	C1761.073242,355.144104 1756.045044,343.020081 1744.511475,336.909088 
M1327.397827,335.007751 
	C1313.312866,331.647583 1301.474976,335.060608 1295.026001,344.341095 
	C1287.330688,355.414551 1288.750732,372.438385 1298.135620,381.620056 
	C1306.868164,390.163513 1325.342163,391.291565 1335.793091,383.845001 
	C1336.627686,383.250275 1337.609253,382.136688 1337.631104,381.242371 
	C1337.788452,374.817932 1337.715454,368.387787 1337.715454,361.735779 
	C1331.516357,361.735779 1325.940430,361.735779 1319.884521,361.735779 
	C1320.076660,363.808258 1319.732422,366.791016 1320.494019,367.106812 
	C1323.230347,368.241333 1326.340332,368.474884 1329.611328,369.107361 
	C1329.611328,371.512970 1329.838989,373.853821 1329.521729,376.118225 
	C1329.344727,377.380188 1328.560547,379.028656 1327.537964,379.625183 
	C1320.056763,383.988861 1307.067627,380.984192 1302.322388,373.981598 
	C1297.287109,366.551331 1297.793701,353.874603 1303.390991,347.240784 
	C1308.873901,340.742493 1319.039917,339.327789 1328.144653,343.795959 
	C1334.070557,346.704102 1334.070557,346.704132 1337.094482,340.220734 
	C1334.152100,338.563507 1331.160034,336.878326 1327.397827,335.007751 
M1001.716370,334.379852 
	C990.913330,334.379852 980.110291,334.379852 969.056763,334.379852 
	C969.056763,352.271027 969.056763,370.006592 969.056763,387.898254 
	C980.250183,387.898254 991.177124,387.898254 1002.364746,387.898254 
	C1002.364746,385.581055 1002.364746,383.485443 1002.364746,380.893860 
	C994.042908,380.893860 985.957703,380.893860 977.563477,380.893860 
	C977.563477,375.336670 977.563477,370.267761 977.563477,364.590546 
	C984.197815,364.590546 990.784546,364.590546 997.513428,364.590546 
	C997.513428,361.919586 997.513428,359.866302 997.513428,357.229523 
	C990.621948,357.229523 984.036499,357.229523 977.559204,357.229523 
	C977.559204,351.708405 977.559204,346.782104 977.559204,341.348694 
	C985.944763,341.348694 994.026917,341.348694 1002.617371,341.348694 
	C1002.487366,338.879578 1002.385620,336.948212 1001.716370,334.379852 
M1044.163086,346.708374 
	C1051.509155,340.331787 1059.358276,339.431671 1067.562622,344.025269 
	C1072.182861,346.612091 1072.980713,346.267731 1075.219238,340.719940 
	C1065.199219,330.780273 1046.569946,331.445465 1037.143433,342.079498 
	C1027.257080,353.232330 1028.530640,374.442230 1039.615845,383.254211 
	C1050.473633,391.885406 1068.063110,390.336914 1075.462280,380.037445 
	C1073.432251,375.893219 1071.214600,375.333435 1067.065796,378.220459 
	C1057.021118,385.210480 1043.662842,380.223999 1040.159424,368.562775 
	C1037.866943,360.932068 1038.798828,353.762451 1044.163086,346.708374 
M683.643066,381.052704 
	C671.754639,380.185242 665.212280,371.438324 666.613708,358.285309 
	C668.116638,344.179901 681.763245,336.929321 694.199280,343.628784 
	C699.792603,346.642029 700.156128,346.509369 702.552673,340.581055 
	C694.025574,330.731842 672.983948,331.544891 663.969421,342.501282 
	C654.546509,353.954010 655.965759,374.503448 667.023376,383.325500 
	C678.030029,392.106873 697.161926,389.795715 702.831604,380.009979 
	C700.722900,375.984650 698.469482,375.107605 694.315735,378.174500 
	C691.739014,380.076996 687.815674,380.155731 683.643066,381.052704 
M1794.952026,387.658447 
	C1800.015991,387.523529 1805.287354,388.230408 1810.092651,387.046021 
	C1816.458984,385.476868 1820.231445,379.028259 1820.424438,372.043823 
	C1820.603271,365.571838 1817.740356,361.533661 1810.674927,358.541229 
	C1807.923584,357.375946 1805.058228,356.483124 1802.276978,355.384735 
	C1796.400146,353.063782 1794.475342,350.466980 1795.606934,346.516876 
	C1796.775024,342.439209 1800.626709,340.354279 1806.108521,341.141022 
	C1807.862915,341.392822 1809.614868,342.151276 1811.201172,342.992340 
	C1816.478394,345.790283 1816.973022,345.609406 1818.910767,339.497070 
	C1813.027466,334.010345 1805.255127,332.253662 1797.686157,334.699921 
	C1791.519775,336.692810 1787.359131,342.101196 1787.132202,348.419098 
	C1786.901733,354.831726 1790.159912,359.653229 1796.610474,362.189148 
	C1800.169800,363.588440 1803.849121,364.685181 1807.397949,366.108673 
	C1810.869507,367.501099 1813.275879,370.312378 1811.866089,373.887543 
	C1810.796387,376.600372 1808.123901,380.230103 1805.776855,380.542938 
	C1801.832397,381.068756 1797.225464,380.033600 1793.539307,378.294312 
	C1787.868774,375.618744 1787.786987,375.242523 1784.877319,382.169373 
	C1787.931885,383.877808 1791.068848,385.632355 1794.952026,387.658447 
M1113.510010,341.662048 
	C1116.564087,341.138306 1117.513916,342.345001 1117.420898,345.466553 
	C1117.192627,353.122925 1117.347290,360.790771 1117.347534,368.453979 
	C1117.347778,374.888428 1117.347656,381.322845 1117.347656,387.839233 
	C1120.574219,387.839233 1123.146606,387.839233 1126.194214,387.839233 
	C1126.194214,372.298370 1126.194214,357.056549 1126.194214,341.316284 
	C1132.080566,341.316284 1137.489990,341.316284 1142.821045,341.316284 
	C1142.821045,338.686096 1142.821045,336.584106 1142.821045,334.443665 
	C1128.605469,334.443665 1114.690063,334.443665 1100.660645,334.443665 
	C1100.660645,336.944183 1100.660645,339.130219 1100.660645,341.661133 
	C1104.898071,341.661133 1108.708130,341.661133 1113.510010,341.662048 
M1672.468750,388.114136 
	C1675.927856,388.114136 1679.386963,388.114136 1683.008301,388.114136 
	C1683.008301,385.482269 1683.008301,383.271423 1683.008301,380.769684 
	C1675.531128,380.769684 1668.414307,380.769684 1660.570557,380.769684 
	C1660.570557,365.131927 1660.570557,349.779694 1660.570557,334.603394 
	C1657.277222,334.603394 1654.726440,334.603394 1652.278076,334.603394 
	C1652.278076,352.605743 1652.278076,370.168274 1652.278076,388.114166 
	C1658.891235,388.114166 1665.185547,388.114166 1672.468750,388.114136 
M1180.965332,385.020386 
	C1180.965332,368.241852 1180.965332,351.463287 1180.965332,334.479401 
	C1177.822510,334.479401 1175.272461,334.479401 1172.466797,334.479401 
	C1172.466797,352.401215 1172.466797,369.991882 1172.466797,388.031860 
	C1175.413574,387.048126 1179.008423,390.567810 1180.965332,385.020386 
z"/>
<path fill="#E8B24E" opacity="1.000000" stroke="none" 
	d="
M131.878754,226.771484 
	C134.470490,223.745651 135.963638,225.613068 137.712570,227.371262 
	C150.157837,239.882431 162.214584,252.825119 175.235733,264.709290 
	C204.998032,291.872955 237.828506,314.342377 276.466187,327.209351 
	C302.084106,335.740540 328.245972,338.699554 355.206482,335.382263 
	C402.576721,329.553772 442.619537,308.145538 477.846100,277.280121 
	C495.318695,261.970673 511.068024,244.694427 528.326416,227.584839 
	C541.292236,236.864868 555.407837,246.967819 570.269348,257.604645 
	C563.656433,265.714203 557.628052,273.617798 551.072571,281.056793 
	C523.875061,311.919861 492.705170,337.981842 456.600372,357.883209 
	C428.203094,373.536133 398.105865,384.233826 365.743500,388.016022 
	C300.751556,395.611542 242.204956,377.714691 188.112289,342.743164 
	C152.873062,319.960602 122.875557,291.221375 95.058006,259.384399 
	C107.274216,248.569656 119.445786,237.794449 131.878754,226.771484 
z"/>
<path fill="#EE8223" opacity="1.000000" stroke="none" 
	d="
M390.852783,171.182770 
	C405.154785,203.845840 391.027008,237.885513 364.274719,253.386322 
	C324.872925,276.216553 273.272186,249.968689 268.874634,204.663910 
	C265.815491,173.147720 284.868774,144.899200 315.125549,136.092072 
	C344.879944,127.431198 375.632690,141.570343 390.852783,171.182770 
z"/>
<path fill="#3AB6A6" opacity="1.000000" stroke="none" 
	d="
M1329.939697,136.887787 
	C1332.912842,136.887726 1335.395630,136.887726 1338.236084,136.887726 
	C1338.236084,184.305084 1338.236084,231.370422 1338.236084,278.811157 
	C1332.017334,279.648041 1326.530151,279.850708 1321.627930,274.289215 
	C1297.619019,247.051849 1273.302368,220.085770 1249.090942,193.027008 
	C1248.327637,192.173859 1247.524658,191.356049 1246.069824,189.808868 
	C1246.069824,219.908325 1246.069824,249.188126 1246.069824,278.862305 
	C1236.632812,278.862305 1227.730713,278.862305 1218.411743,278.862305 
	C1218.411743,231.870804 1218.411743,184.810028 1218.411743,137.352539 
	C1224.794800,136.387253 1230.397217,136.363678 1235.583252,142.294373 
	C1259.262573,169.373550 1283.383057,196.066788 1307.339111,222.904068 
	C1308.212524,223.882523 1309.023926,224.916443 1310.694824,226.921021 
	C1310.694824,196.211227 1310.694824,166.882324 1310.694824,136.887833 
	C1317.230225,136.887833 1323.339722,136.887833 1329.939697,136.887787 
z"/>
<path fill="#3AB6A6" opacity="1.000000" stroke="none" 
	d="
M1719.215942,270.802673 
	C1720.956055,273.446686 1722.498291,275.786682 1724.789551,279.263519 
	C1718.820435,279.263519 1713.732666,278.711731 1708.807983,279.373444 
	C1697.006714,280.959167 1689.508789,276.390839 1683.869629,265.858887 
	C1677.678955,254.297394 1669.596680,243.765076 1662.863281,232.471497 
	C1659.111328,226.178711 1654.464478,222.902344 1647.036133,223.755859 
	C1644.281860,224.072327 1641.460693,223.806976 1638.144531,223.806976 
	C1638.144531,242.401428 1638.144531,260.482819 1638.144531,278.909607 
	C1628.707886,278.909607 1619.794800,278.909607 1610.484253,278.909607 
	C1610.484253,231.845566 1610.484253,184.778610 1610.484253,137.559921 
	C1610.788574,137.406448 1611.216675,136.998657 1611.638306,137.005310 
	C1632.448242,137.333511 1653.302612,136.989227 1674.049927,138.317734 
	C1686.886841,139.139709 1698.812378,144.190277 1706.828857,155.192566 
	C1718.794434,171.614685 1716.773560,202.841797 1688.595459,215.426666 
	C1686.321777,216.442093 1683.988892,217.324539 1681.885742,218.185974 
	C1696.678101,233.945541 1706.483521,253.198334 1719.215942,270.802673 
M1676.004517,199.611176 
	C1685.475586,193.528717 1687.377319,184.302322 1685.626343,174.224747 
	C1683.997925,164.852371 1677.074341,159.952744 1668.210938,158.739746 
	C1658.433838,157.401688 1648.497681,157.224380 1638.066528,156.502396 
	C1638.066528,165.523407 1638.066528,173.308716 1638.066528,181.094009 
	C1638.066528,188.848907 1638.066528,196.603806 1638.066528,204.765244 
	C1643.250854,204.765244 1647.719849,204.877914 1652.181396,204.740540 
	C1660.171509,204.494476 1668.188599,204.251373 1676.004517,199.611176 
z"/>
<path fill="#3BB6A6" opacity="1.000000" stroke="none" 
	d="
M1152.613037,141.363281 
	C1179.895508,156.525299 1193.782471,179.623749 1192.639648,210.273605 
	C1191.512939,240.485901 1176.334717,262.622375 1148.735840,275.348511 
	C1117.847534,289.591461 1079.122559,277.287537 1060.621216,247.932800 
	C1036.016846,208.894516 1050.752686,158.557632 1092.851074,139.676254 
	C1112.597778,130.819748 1132.698486,131.748428 1152.613037,141.363281 
M1161.448608,179.154953 
	C1149.324829,162.203979 1133.022583,153.776993 1112.274658,157.764938 
	C1080.449097,163.882141 1063.445435,197.377670 1075.959595,227.730392 
	C1089.981445,261.739777 1134.496826,268.621033 1157.982056,240.409454 
	C1172.202026,223.327774 1173.651123,200.502960 1161.448608,179.154953 
z"/>
<path fill="#3BB6A6" opacity="1.000000" stroke="none" 
	d="
M1454.501465,217.447174 
	C1435.863403,217.747833 1417.590088,217.747833 1399.027344,217.747833 
	C1399.027344,230.739151 1399.027344,242.980240 1399.027344,255.803574 
	C1419.916626,255.803574 1440.644775,255.803574 1461.664551,255.803574 
	C1461.664551,263.782440 1461.664551,271.182617 1461.664551,278.924194 
	C1431.887451,278.924194 1402.313232,278.924194 1372.346802,278.924194 
	C1372.346802,231.884613 1372.346802,184.821136 1372.346802,137.321335 
	C1401.877808,137.321335 1431.574219,137.321335 1461.618164,137.321335 
	C1461.618164,144.665115 1461.618164,152.047577 1461.618164,160.037659 
	C1440.724976,160.037659 1420.004761,160.037659 1399.012695,160.037659 
	C1399.012695,172.566132 1399.012695,184.493195 1399.012695,197.126770 
	C1417.593384,197.126770 1436.125244,197.126770 1454.866211,197.126770 
	C1454.866211,204.265945 1454.866211,210.706238 1454.501465,217.447174 
z"/>
<path fill="#3AB6A6" opacity="1.000000" stroke="none" 
	d="
M1518.000000,279.261566 
	C1509.191284,279.261719 1500.882568,279.261719 1492.173828,279.261719 
	C1492.173828,231.845200 1492.173828,184.789093 1492.173828,137.310089 
	C1521.709961,137.310089 1551.418335,137.310089 1581.479492,137.310089 
	C1581.479492,144.637787 1581.479492,152.024628 1581.479492,159.923676 
	C1560.582397,159.923676 1539.836426,159.923676 1518.683960,159.923676 
	C1518.683960,172.476608 1518.683960,184.525635 1518.683960,197.187073 
	C1537.333130,197.187073 1555.886963,197.187073 1574.711914,197.187073 
	C1574.711914,204.221298 1574.711914,210.654266 1574.711914,217.714355 
	C1556.175781,217.714355 1537.620483,217.714355 1518.671631,217.714355 
	C1518.671631,230.565155 1518.671631,242.797791 1518.671631,255.725159 
	C1539.553955,255.725159 1560.411133,255.725159 1581.543457,255.725159 
	C1581.543457,263.816742 1581.543457,271.218414 1581.543457,279.261414 
	C1560.364136,279.261414 1539.432129,279.261414 1518.000000,279.261566 
z"/>
<path fill="#3BB6A6" opacity="1.000000" stroke="none" 
	d="
M689.251343,155.640747 
	C700.676453,182.238632 711.952332,208.487213 723.400330,235.136383 
	C727.336426,225.534393 731.035950,216.211899 734.964294,206.986832 
	C743.828125,186.171570 752.878967,165.435715 761.685974,144.596664 
	C763.990967,139.142654 767.534241,136.544601 773.571777,136.816193 
	C780.329346,137.120163 787.111206,136.885971 794.838562,136.885971 
	C790.759277,146.175385 787.073914,154.671143 783.306091,163.130157 
	C767.059204,199.605682 750.702698,236.032730 734.590332,272.567505 
	C730.893311,280.950531 728.018799,282.420288 720.745178,281.722931 
	C717.230347,281.385956 714.402832,279.697266 712.740051,275.919403 
	C692.900146,230.841705 672.905273,185.832230 652.965210,140.798599 
	C652.513000,139.777328 652.225708,138.682999 651.672424,137.072281 
	C660.377625,137.072281 668.661987,136.632416 676.847351,137.339279 
	C679.315247,137.552399 682.166016,140.543381 683.674805,142.983322 
	C686.010376,146.760452 687.343750,151.157349 689.251343,155.640747 
z"/>
<path fill="#3BB6A6" opacity="1.000000" stroke="none" 
	d="
M1732.398193,258.244751 
	C1734.939209,254.935516 1737.193604,251.837585 1739.600952,248.863617 
	C1743.511963,244.032394 1746.178955,243.765305 1751.624390,246.872543 
	C1757.370117,250.150986 1763.084717,253.619690 1769.176514,256.118896 
	C1775.742432,258.812531 1782.590210,258.213806 1788.932007,254.736237 
	C1795.083130,251.363129 1798.699463,246.118698 1798.912720,239.076370 
	C1799.119995,232.235046 1795.541382,227.096146 1789.555786,224.348495 
	C1780.504639,220.193695 1771.011475,217.007050 1761.929688,212.913208 
	C1745.173462,205.360001 1736.998169,191.821121 1738.515259,174.985550 
	C1740.226929,155.990402 1751.752808,141.978897 1769.318604,137.590988 
	C1786.800659,133.224030 1802.901489,136.706665 1818.026978,146.067566 
	C1821.882324,148.453506 1822.868164,151.138290 1820.368408,155.106491 
	C1818.866943,157.489761 1817.820679,160.154587 1816.451172,162.627045 
	C1813.633179,167.713760 1811.725464,167.758545 1806.357422,165.293884 
	C1799.630981,162.205444 1792.695190,159.104691 1785.516235,157.577728 
	C1774.292358,155.190430 1764.378540,164.506699 1764.720093,175.918793 
	C1764.873901,181.056824 1767.117065,185.182266 1771.578857,187.300766 
	C1778.760742,190.710770 1786.304199,193.350647 1793.629395,196.469421 
	C1804.813599,201.231125 1815.191650,207.149567 1821.339722,218.262482 
	C1832.373169,238.205536 1826.049438,260.168945 1806.143433,273.360474 
	C1782.941528,288.736115 1751.038086,281.328613 1733.076782,262.736420 
	C1732.228882,261.858673 1732.454590,259.943665 1732.398193,258.244751 
z"/>
<path fill="#3BB6A6" opacity="1.000000" stroke="none" 
	d="
M950.169495,267.178711 
	C924.190369,291.969513 883.626770,279.784637 868.164307,259.502319 
	C871.397827,255.256836 874.618164,250.837097 878.049133,246.587479 
	C880.566406,243.469589 883.770874,243.519699 887.009644,245.445038 
	C891.154358,247.908890 895.088196,250.773483 899.381409,252.931229 
	C907.166504,256.844025 915.252869,258.889954 923.847778,255.195053 
	C930.861389,252.179947 935.238953,247.096756 935.943054,239.433624 
	C936.641602,231.829758 932.580261,226.524719 926.117920,223.517670 
	C917.841919,219.666702 909.235535,216.513123 900.718445,213.195251 
	C880.106750,205.165802 874.221069,189.553589 876.087708,171.295013 
	C877.903870,153.529099 891.015503,139.891830 909.993530,136.166336 
	C926.351501,132.955170 941.316467,136.920547 955.279297,145.623260 
	C958.940002,147.904892 959.877563,150.485489 957.598145,154.275467 
	C956.231018,156.548553 955.250610,159.050415 953.995056,161.395187 
	C950.839172,167.288803 948.592163,167.860855 942.960754,164.249344 
	C935.951843,159.754364 928.382874,156.944763 919.982300,156.920868 
	C908.595398,156.888458 901.217957,164.760544 901.793213,176.024948 
	C902.083252,181.704529 905.395386,185.458771 910.063354,187.615860 
	C917.140564,190.886200 924.627075,193.257843 931.801453,196.333694 
	C942.033447,200.720398 951.458801,206.386078 957.504761,216.148148 
	C968.271301,233.532089 965.707764,251.303528 950.169495,267.178711 
z"/>
<path fill="#3BB6A6" opacity="1.000000" stroke="none" 
	d="
M844.140137,147.025986 
	C844.140198,191.287674 844.140198,235.054398 844.140198,279.165405 
	C834.531372,279.165405 825.303162,279.165405 815.670776,279.165405 
	C815.670776,231.856125 815.670776,184.698227 815.670776,137.211853 
	C824.981628,137.211853 834.209961,137.211853 844.140076,137.211853 
	C844.140076,140.331009 844.140076,143.431015 844.140137,147.025986 
z"/>
<path fill="#3BB6A6" opacity="1.000000" stroke="none" 
	d="
M992.225891,245.999969 
	C992.251404,209.850891 992.276001,174.201797 992.315247,138.552734 
	C992.315552,138.246948 992.511475,137.941376 992.743835,137.262497 
	C1001.982361,137.262497 1011.341125,137.262497 1020.958923,137.262497 
	C1020.958923,184.538528 1020.958923,231.615250 1020.958923,279.100525 
	C1011.497253,279.100525 1002.141541,279.100525 992.225769,279.100525 
	C992.225769,268.064362 992.225769,257.282166 992.225891,245.999969 
z"/>
<path fill="#262624" opacity="1.000000" stroke="none" 
	d="
M1459.427002,383.681213 
	C1458.666382,390.023224 1454.252930,387.705200 1450.585449,388.096283 
	C1446.248657,375.177704 1441.938477,362.338715 1437.138672,348.040955 
	C1435.632324,352.292694 1434.536011,355.279388 1433.514526,358.291473 
	C1430.846191,366.160583 1428.181396,374.031128 1425.570923,381.919617 
	C1423.389893,388.509705 1423.424805,388.521271 1415.860596,387.747894 
	C1410.398804,370.228943 1404.888550,352.554871 1399.347656,334.782227 
	C1407.927368,333.460083 1408.240845,333.642578 1410.327393,340.530579 
	C1413.594849,351.317535 1416.868530,362.102600 1420.410400,373.781433 
	C1424.382935,362.050323 1428.028687,351.221863 1431.725464,340.410828 
	C1432.662109,337.671844 1432.919189,334.377441 1437.017334,334.153595 
	C1441.568970,333.905060 1441.853027,337.593506 1442.824951,340.402100 
	C1446.439087,350.844727 1449.867920,361.351532 1454.556641,371.863800 
	C1456.991577,363.901886 1459.432495,355.941864 1461.857666,347.977020 
	C1462.583130,345.594513 1463.217163,343.183441 1463.974365,340.811401 
	C1466.190674,333.869781 1466.206787,333.874908 1474.764771,334.489655 
	C1469.652222,350.900543 1464.605957,367.098846 1459.427002,383.681213 
z"/>
<path fill="#252523" opacity="1.000000" stroke="none" 
	d="
M891.109314,357.000061 
	C891.109314,349.352997 891.109314,342.205933 891.109314,334.888489 
	C894.824036,333.469482 897.502380,334.107300 899.893311,337.276367 
	C907.707642,347.634033 915.692261,357.863251 923.624084,368.132019 
	C924.500549,369.266693 925.459045,370.338043 927.288452,372.525726 
	C927.288452,359.118256 927.288452,346.962585 927.288452,334.497070 
	C930.195679,334.497070 932.432373,334.497070 935.007507,334.497070 
	C935.007507,352.229126 935.007507,369.953674 935.007507,387.700623 
	C931.031128,388.906708 928.387695,387.547638 925.974915,384.328003 
	C917.414124,372.904785 908.622498,361.654602 899.098328,349.272858 
	C899.098328,362.813080 899.098328,375.128601 899.098328,387.772125 
	C896.278198,387.772125 894.033569,387.772125 891.109314,387.772125 
	C891.109314,377.704041 891.109314,367.602020 891.109314,357.000061 
z"/>
<path fill="#242422" opacity="1.000000" stroke="none" 
	d="
M857.878906,351.002380 
	C857.878906,363.471527 857.878906,375.441101 857.878906,387.598267 
	C853.844604,388.632324 851.178772,387.976990 848.648071,384.564453 
	C840.156433,373.114014 831.295776,361.937134 821.558350,350.851044 
	C821.558350,363.138062 821.558350,375.425079 821.558350,387.864319 
	C818.566467,387.864319 816.299683,387.864319 813.847534,387.864319 
	C813.847534,370.009583 813.847534,352.398407 813.847534,334.711639 
	C817.904541,333.320862 820.495361,334.714905 822.895874,337.928223 
	C830.467529,348.063660 838.276733,358.021729 846.004333,368.040436 
	C846.996094,369.326141 848.049133,370.564484 849.738037,372.641754 
	C849.738037,359.455627 849.738037,347.252655 849.738037,334.613586 
	C852.536133,334.613586 854.888550,334.613586 857.878906,334.613586 
	C857.878906,339.951660 857.878906,345.227234 857.878906,351.002380 
z"/>
<path fill="#242422" opacity="1.000000" stroke="none" 
	d="
M1221.682861,388.075134 
	C1219.597656,388.099091 1217.952026,388.099091 1215.966187,388.099091 
	C1215.966187,370.106812 1215.966187,352.410187 1215.966187,334.627045 
	C1219.635620,333.534088 1222.257935,334.404083 1224.616821,337.559692 
	C1232.481323,348.080414 1240.590210,358.418365 1248.617188,368.817383 
	C1249.401733,369.833771 1250.266968,370.787964 1251.920898,372.752228 
	C1251.920898,359.321960 1251.920898,347.011597 1251.920898,334.447144 
	C1254.795044,334.447144 1257.032837,334.447144 1259.584717,334.447144 
	C1259.584717,352.225647 1259.584717,369.779236 1259.584717,387.683075 
	C1255.979614,388.606384 1253.261719,388.080505 1250.728394,384.676331 
	C1242.208496,373.227997 1233.361694,362.022919 1223.848511,349.699432 
	C1223.600464,352.086700 1223.352417,353.389160 1223.347900,354.692505 
	C1223.314575,364.343109 1223.380493,373.994415 1223.275757,383.644012 
	C1223.259888,385.117065 1222.524902,386.582306 1221.682861,388.075134 
z"/>
<path fill="#252523" opacity="1.000000" stroke="none" 
	d="
M756.971924,333.692963 
	C771.553101,334.810974 779.780396,341.673248 782.755493,354.858490 
	C785.493225,366.991730 780.370239,379.985413 770.034485,385.393250 
	C760.523438,390.369598 750.731628,390.125336 741.551575,384.325348 
	C732.595093,378.666656 729.742188,369.723663 730.135376,359.757507 
	C730.758789,343.954559 740.366638,334.709137 756.971924,333.692963 
M738.777649,361.460785 
	C738.976196,368.414612 740.755493,374.663177 747.106323,378.548462 
	C755.263123,383.538605 766.787842,381.081512 771.451599,373.506195 
	C777.313171,363.985291 774.751770,349.079498 766.362610,343.891602 
	C753.657288,336.034546 739.742859,344.443634 738.777649,361.460785 
z"/>
<path fill="#252523" opacity="1.000000" stroke="none" 
	d="
M1549.684570,348.370728 
	C1555.310547,362.033844 1551.613037,377.336426 1541.276123,384.191467 
	C1531.718140,390.530029 1517.616943,390.124176 1508.903442,383.259827 
	C1500.078369,376.307587 1496.554810,361.796997 1501.013062,350.408447 
	C1505.140625,339.864899 1512.947510,334.277618 1524.233521,333.770966 
	C1535.570068,333.262054 1544.320068,337.549225 1549.684570,348.370728 
M1515.533691,378.157867 
	C1529.057861,385.477997 1541.816040,378.969452 1543.374390,363.807526 
	C1543.674927,360.884155 1543.388428,357.816986 1542.862305,354.908478 
	C1541.539062,347.593353 1536.080078,342.524475 1528.735840,341.382904 
	C1521.002808,340.180847 1513.712646,343.673065 1510.222412,350.251343 
	C1505.668213,358.835327 1507.748901,371.040619 1515.533691,378.157867 
z"/>
<path fill="#282826" opacity="1.000000" stroke="none" 
	d="
M1612.205811,362.297852 
	C1610.562866,363.152435 1609.228027,363.811676 1607.399170,364.714874 
	C1612.909668,372.297577 1618.333008,379.760223 1623.849487,387.350952 
	C1615.998169,389.151489 1614.981812,388.768707 1610.567261,382.661194 
	C1607.546997,378.482391 1604.374268,374.405273 1601.529175,370.110870 
	C1599.324463,366.783112 1596.662842,365.294495 1592.314697,366.672760 
	C1592.314697,373.484833 1592.314697,380.413544 1592.314697,387.732666 
	C1589.350098,387.732666 1586.789551,387.732666 1583.800903,387.732666 
	C1583.800903,370.253632 1583.800903,352.570465 1583.800903,333.706299 
	C1592.064453,334.260712 1600.326172,334.321472 1608.417603,335.526276 
	C1614.084351,336.370087 1617.776733,340.599548 1618.828735,346.358978 
	C1620.004639,352.796387 1617.855347,358.152588 1612.205811,362.297852 
M1610.627930,351.149170 
	C1610.189087,342.486572 1604.526367,339.541351 1592.397705,341.738098 
	C1592.397705,347.600250 1592.397705,353.474060 1592.397705,359.299927 
	C1603.656372,360.577087 1607.978394,358.764099 1610.627930,351.149170 
z"/>
<path fill="#242422" opacity="1.000000" stroke="none" 
	d="
M1744.855225,337.061676 
	C1756.045044,343.020081 1761.073242,355.144104 1758.115967,368.359802 
	C1755.528076,379.924469 1746.627075,387.386078 1734.241089,387.908813 
	C1726.982056,388.215149 1719.699585,387.964661 1712.176025,387.964661 
	C1712.176025,370.044250 1712.176025,352.476685 1712.176025,334.152191 
	C1723.028687,334.907471 1733.998901,332.216583 1744.855225,337.061676 
M1746.464966,348.188019 
	C1739.627808,339.238373 1729.993774,341.578735 1720.690918,341.309906 
	C1720.690918,354.759735 1720.690918,367.669891 1720.690918,380.820770 
	C1725.620483,380.820770 1730.291504,381.186523 1734.882690,380.737427 
	C1742.273438,380.014465 1747.105591,375.663757 1749.084839,368.577972 
	C1750.983398,361.780914 1750.605347,355.065613 1746.464966,348.188019 
z"/>
<path fill="#262625" opacity="1.000000" stroke="none" 
	d="
M1327.782959,335.100433 
	C1331.160034,336.878326 1334.152100,338.563507 1337.094482,340.220734 
	C1334.070557,346.704132 1334.070557,346.704102 1328.144653,343.795959 
	C1319.039917,339.327789 1308.873901,340.742493 1303.390991,347.240784 
	C1297.793701,353.874603 1297.287109,366.551331 1302.322388,373.981598 
	C1307.067627,380.984192 1320.056763,383.988861 1327.537964,379.625183 
	C1328.560547,379.028656 1329.344727,377.380188 1329.521729,376.118225 
	C1329.838989,373.853821 1329.611328,371.512970 1329.611328,369.107361 
	C1326.340332,368.474884 1323.230347,368.241333 1320.494019,367.106812 
	C1319.732422,366.791016 1320.076660,363.808258 1319.884521,361.735779 
	C1325.940430,361.735779 1331.516357,361.735779 1337.715454,361.735779 
	C1337.715454,368.387787 1337.788452,374.817932 1337.631104,381.242371 
	C1337.609253,382.136688 1336.627686,383.250275 1335.793091,383.845001 
	C1325.342163,391.291565 1306.868164,390.163513 1298.135620,381.620056 
	C1288.750732,372.438385 1287.330688,355.414551 1295.026001,344.341095 
	C1301.474976,335.060608 1313.312866,331.647583 1327.782959,335.100433 
z"/>
<path fill="#262624" opacity="1.000000" stroke="none" 
	d="
M1002.000122,334.698334 
	C1002.385620,336.948212 1002.487366,338.879578 1002.617371,341.348694 
	C994.026917,341.348694 985.944763,341.348694 977.559204,341.348694 
	C977.559204,346.782104 977.559204,351.708405 977.559204,357.229523 
	C984.036499,357.229523 990.621948,357.229523 997.513428,357.229523 
	C997.513428,359.866302 997.513428,361.919586 997.513428,364.590546 
	C990.784546,364.590546 984.197815,364.590546 977.563477,364.590546 
	C977.563477,370.267761 977.563477,375.336670 977.563477,380.893860 
	C985.957703,380.893860 994.042908,380.893860 1002.364746,380.893860 
	C1002.364746,383.485443 1002.364746,385.581055 1002.364746,387.898254 
	C991.177124,387.898254 980.250183,387.898254 969.056763,387.898254 
	C969.056763,370.006592 969.056763,352.271027 969.056763,334.379852 
	C980.110291,334.379852 990.913330,334.379852 1002.000122,334.698334 
z"/>
<path fill="#252523" opacity="1.000000" stroke="none" 
	d="
M1043.926392,346.997681 
	C1038.798828,353.762451 1037.866943,360.932068 1040.159424,368.562775 
	C1043.662842,380.223999 1057.021118,385.210480 1067.065796,378.220459 
	C1071.214600,375.333435 1073.432251,375.893219 1075.462280,380.037445 
	C1068.063110,390.336914 1050.473633,391.885406 1039.615845,383.254211 
	C1028.530640,374.442230 1027.257080,353.232330 1037.143433,342.079498 
	C1046.569946,331.445465 1065.199219,330.780273 1075.219238,340.719940 
	C1072.980713,346.267731 1072.182861,346.612091 1067.562622,344.025269 
	C1059.358276,339.431671 1051.509155,340.331787 1043.926392,346.997681 
z"/>
<path fill="#252524" opacity="1.000000" stroke="none" 
	d="
M684.069946,381.052917 
	C687.815674,380.155731 691.739014,380.076996 694.315735,378.174500 
	C698.469482,375.107605 700.722900,375.984650 702.831665,380.009888 
	C697.161926,389.795715 678.030029,392.106873 667.023376,383.325500 
	C655.965759,374.503448 654.546509,353.954010 663.969421,342.501282 
	C672.983948,331.544891 694.025574,330.731842 702.552673,340.581055 
	C700.156128,346.509369 699.792603,346.642029 694.199280,343.628784 
	C681.763245,336.929321 668.116638,344.179901 666.613708,358.285309 
	C665.212280,371.438324 671.754639,380.185242 684.069946,381.052917 
z"/>
<path fill="#262624" opacity="1.000000" stroke="none" 
	d="
M1794.578979,387.522675 
	C1791.068848,385.632355 1787.931885,383.877808 1784.877319,382.169373 
	C1787.786987,375.242523 1787.868774,375.618744 1793.539307,378.294312 
	C1797.225464,380.033600 1801.832397,381.068756 1805.776855,380.542938 
	C1808.123901,380.230103 1810.796387,376.600372 1811.866089,373.887543 
	C1813.275879,370.312378 1810.869507,367.501099 1807.397949,366.108673 
	C1803.849121,364.685181 1800.169800,363.588440 1796.610474,362.189148 
	C1790.159912,359.653229 1786.901733,354.831726 1787.132202,348.419098 
	C1787.359131,342.101196 1791.519775,336.692810 1797.686157,334.699921 
	C1805.255127,332.253662 1813.027466,334.010345 1818.910767,339.497070 
	C1816.973022,345.609406 1816.478394,345.790283 1811.201172,342.992340 
	C1809.614868,342.151276 1807.862915,341.392822 1806.108521,341.141022 
	C1800.626709,340.354279 1796.775024,342.439209 1795.606934,346.516876 
	C1794.475342,350.466980 1796.400146,353.063782 1802.276978,355.384735 
	C1805.058228,356.483124 1807.923584,357.375946 1810.674927,358.541229 
	C1817.740356,361.533661 1820.603271,365.571838 1820.424438,372.043823 
	C1820.231445,379.028259 1816.458984,385.476868 1810.092651,387.046021 
	C1805.287354,388.230408 1800.015991,387.523529 1794.578979,387.522675 
z"/>
<path fill="#2E2E2C" opacity="1.000000" stroke="none" 
	d="
M1113.014160,341.661591 
	C1108.708130,341.661133 1104.898071,341.661133 1100.660645,341.661133 
	C1100.660645,339.130219 1100.660645,336.944183 1100.660645,334.443665 
	C1114.690063,334.443665 1128.605469,334.443665 1142.821045,334.443665 
	C1142.821045,336.584106 1142.821045,338.686096 1142.821045,341.316284 
	C1137.489990,341.316284 1132.080566,341.316284 1126.194214,341.316284 
	C1126.194214,357.056549 1126.194214,372.298370 1126.194214,387.839233 
	C1123.146606,387.839233 1120.574219,387.839233 1117.347656,387.839233 
	C1117.347656,381.322845 1117.347778,374.888428 1117.347534,368.453979 
	C1117.347290,360.790771 1117.192627,353.122925 1117.420898,345.466553 
	C1117.513916,342.345001 1116.564087,341.138306 1113.014160,341.661591 
z"/>
<path fill="#262625" opacity="1.000000" stroke="none" 
	d="
M1671.974365,388.114136 
	C1665.185547,388.114166 1658.891235,388.114166 1652.278076,388.114166 
	C1652.278076,370.168274 1652.278076,352.605743 1652.278076,334.603394 
	C1654.726440,334.603394 1657.277222,334.603394 1660.570557,334.603394 
	C1660.570557,349.779694 1660.570557,365.131927 1660.570557,380.769684 
	C1668.414307,380.769684 1675.531128,380.769684 1683.008301,380.769684 
	C1683.008301,383.271423 1683.008301,385.482269 1683.008301,388.114136 
	C1679.386963,388.114136 1675.927856,388.114136 1671.974365,388.114136 
z"/>
<path fill="#2C2C2A" opacity="1.000000" stroke="none" 
	d="
M1180.962524,385.465057 
	C1179.008423,390.567810 1175.413574,387.048126 1172.466797,388.031860 
	C1172.466797,369.991882 1172.466797,352.401215 1172.466797,334.479401 
	C1175.272461,334.479401 1177.822510,334.479401 1180.965332,334.479401 
	C1180.965332,351.463287 1180.965332,368.241852 1180.962524,385.465057 
z"/>
<path fill="#FCFEFE" opacity="1.000000" stroke="none" 
	d="
M1675.686279,199.801880 
	C1668.188599,204.251373 1660.171509,204.494476 1652.181396,204.740540 
	C1647.719849,204.877914 1643.250854,204.765244 1638.066528,204.765244 
	C1638.066528,196.603806 1638.066528,188.848907 1638.066528,181.094009 
	C1638.066528,173.308716 1638.066528,165.523407 1638.066528,156.502396 
	C1648.497681,157.224380 1658.433838,157.401688 1668.210938,158.739746 
	C1677.074341,159.952744 1683.997925,164.852371 1685.626343,174.224747 
	C1687.377319,184.302322 1685.475586,193.528717 1675.686279,199.801880 
z"/>
<path fill="#FEFFFE" opacity="1.000000" stroke="none" 
	d="
M1161.640137,179.467072 
	C1173.651123,200.502960 1172.202026,223.327774 1157.982056,240.409454 
	C1134.496826,268.621033 1089.981445,261.739777 1075.959595,227.730392 
	C1063.445435,197.377670 1080.449097,163.882141 1112.274658,157.764938 
	C1133.022583,153.776993 1149.324829,162.203979 1161.640137,179.467072 
z"/>
<path fill="#FBFBFB" opacity="1.000000" stroke="none" 
	d="
M738.778687,361.010925 
	C739.742859,344.443634 753.657288,336.034546 766.362610,343.891602 
	C774.751770,349.079498 777.313171,363.985291 771.451599,373.506195 
	C766.787842,381.081512 755.263123,383.538605 747.106323,378.548462 
	C740.755493,374.663177 738.976196,368.414612 738.778687,361.010925 
z"/>
<path fill="#FBFBFB" opacity="1.000000" stroke="none" 
	d="
M1515.221436,377.950317 
	C1507.748901,371.040619 1505.668213,358.835327 1510.222412,350.251343 
	C1513.712646,343.673065 1521.002808,340.180847 1528.735840,341.382904 
	C1536.080078,342.524475 1541.539062,347.593353 1542.862305,354.908478 
	C1543.388428,357.816986 1543.674927,360.884155 1543.374390,363.807526 
	C1541.816040,378.969452 1529.057861,385.477997 1515.221436,377.950317 
z"/>
<path fill="#F4F4F4" opacity="1.000000" stroke="none" 
	d="
M1610.558472,351.524963 
	C1607.978394,358.764099 1603.656372,360.577087 1592.397705,359.299927 
	C1592.397705,353.474060 1592.397705,347.600250 1592.397705,341.738098 
	C1604.526367,339.541351 1610.189087,342.486572 1610.558472,351.524963 
z"/>
<path fill="#F8F8F8" opacity="1.000000" stroke="none" 
	d="
M1746.670166,348.500305 
	C1750.605347,355.065613 1750.983398,361.780914 1749.084839,368.577972 
	C1747.105591,375.663757 1742.273438,380.014465 1734.882690,380.737427 
	C1730.291504,381.186523 1725.620483,380.820770 1720.690918,380.820770 
	C1720.690918,367.669891 1720.690918,354.759735 1720.690918,341.309906 
	C1729.993774,341.578735 1739.627808,339.238373 1746.670166,348.500305 
z"/>
</svg>